<svg version="1" xmlns="http://www.w3.org/2000/svg" width="666.667" height="666.667" viewBox="0 0 500.000000 500.000000"><path d="M59.3 5.6c-22.6 4.7-39.5 25.7-39.6 49.3-.1 18.2 10.1 35.6 26.2 44.7 4.9 2.7 18.7 6.7 20.2 5.8.5-.3.9.5 1 1.8.6 13 .3 250.7-.3 252-.4.9-1.6 1.5-2.5 1.4-4.7-.7-23.7 5.6-29.8 9.8-15.7 10.9-25.4 24.1-29.6 40.4-8 31.3 6.7 63.6 35.3 77.6 9.6 4.7 17.3 6.7 28.2 7 22.1.7 41.3-8.4 55.9-26.5 3.4-4.2 10.4-17.9 11.2-21.8.2-.9.9-4.4 1.5-7.9 1.5-7.7.7-23.6-1.5-30.2-.8-2.5-2.7-7.1-4.2-10.2l-2.6-5.8 11.4-10.8c6.3-6 14.1-13.4 17.3-16.4l5.9-5.6 5.6 4.6c33.2 27.1 78.8 41 121.7 37 7.6-.7 12-1.4 25.9-4.2 1.1-.2 5.8-1.6 10.5-3.1 31.1-9.9 60.6-30.2 80.6-55.5 5.6-7.1 15.7-22.3 17.4-26.1.5-1.3 1.4-3.1 1.9-3.9 4.6-7.5 12.6-30.8 14.7-43 .3-1.4.7-3.2.9-4 1.9-6.9 2.6-38.1 1.1-49.5-5.1-38.8-22.2-73.5-49.6-100.4-31.3-30.8-74.2-48.4-118-48.4-7.6 0-21.7.9-25.6 1.7-1.2.2-3.9.7-6 1-2.2.4-4.7.9-5.6 1.2-.9.3-2.6.7-3.9.9-25.2 4.9-59.7 24.6-82.1 47-.3.4-4.6-2.9-9.5-7.2-4.9-4.3-11.6-10.1-14.8-12.8-3.2-2.8-7.9-6.9-10.4-9.1l-4.5-4.1 2.6-5.9c3.5-7.7 4.7-13.4 4.8-21.4.1-32.1-29.9-56.1-61.7-49.4zM121 109.1c9.6 8.3 18.3 15.9 19.3 16.8 1.8 1.8 1.6 2.2-5.1 12.2-13.7 20.3-21.4 39.3-26.8 65.9-1.4 7.2-1.9 15.2-1.8 31.5.1 14.5.5 20.1 2.3 29 5 24.2 14.7 47.2 27.5 65.3l6.3 8.9-12 11.4c-23.3 22.2-23 21.9-24.7 20.5-3.7-3.3-16.2-8.2-23.4-9.1-6.7-1-7.1-1-8.2-1.8-.8-.5-1.1-35.1-1.1-127.2-.1-106.7.2-126.5 1.3-126.6.8-.1 1.7-.2 2.2-.3.4-.1 2.5-.5 4.7-1 5-1 15.2-5.6 18.5-8.4 1.4-1.2 2.7-2.1 3-2.2.3 0 8.4 6.8 18 15.1z"/></svg>